<svg xmlns="http://www.w3.org/2000/svg" xmlns:xlink="http://www.w3.org/1999/xlink" width="85" height="103" viewBox="0 0 85 103">
    <defs>
        <path id="a" d="M70.346 12.07C62.3 4.024 51.754 0 41.208 0 30.661 0 20.115 4.024 12.069 12.07c-16.092 16.092-16.092 42.185 0 58.277 8.046 8.046 18.592 12.07 29.139 12.07 10.546 0 21.092-4.024 29.138-12.07 16.094-16.092 16.094-42.185 0-58.277"/>
        <radialGradient id="c" cx="49.94%" cy="50.018%" r="550.365%" fx="49.94%" fy="50.018%" gradientTransform="matrix(.0909 0 0 1 .454 0)">
            <stop offset="0%" stop-color="#747474"/>
            <stop offset="7%" stop-color="#8A8A8A"/>
            <stop offset="19%" stop-color="#AEAEAE"/>
            <stop offset="32%" stop-color="#CBCBCB"/>
            <stop offset="46%" stop-color="#E2E2E2"/>
            <stop offset="61%" stop-color="#F2F2F2"/>
            <stop offset="78%" stop-color="#FCFCFC"/>
            <stop offset="100%" stop-color="#FFF"/>
        </radialGradient>
        <filter id="d" width="115.6%" height="271.4%" x="-7.8%" y="-85.7%" filterUnits="objectBoundingBox">
            <feGaussianBlur in="SourceGraphic" stdDeviation="2"/>
        </filter>
    </defs>
    <g fill="none" fill-rule="evenodd" transform="translate(1)">
        <mask id="b" fill="#fff">
            <use xlink:href="#a"/>
        </mask>
        <use fill="#EF1401" xlink:href="#a"/>
        <path fill="#000" d="M19.552 53.953l-.704-.704L29.18 42.917l-.08-.08.1-.1-.704-.704.101-.101-.703-.704.1-.1-.704-.704.1-.1-.702-.703.1-.1-.704-.704.101-.101-.703-.704.1-.1-.704-.704.1-.1-.702-.703.1-.1-.704-.705.101-.1-.703-.704.1-.1-.704-.704.1-.1-.703-.704.101-.1-.704-.704.1-.101-.703-.704.1-.1-.703-.703.1-.1-.703-.704.101-.1-.704-.705 10.32-10.319 12.039 12.04 12.04-12.042 10.32 10.321-.1.1.704.705-.1.1.703.704-.1.1.703.703-.1.101.703.704-.1.1.704.704-.1.1.702.704-.1.1.704.704-.101.1.703.704-.1.1.704.705-.1.1.702.703-.1.1.704.704-.101.101.703.704-.1.1.704.704-.1.1.702.703-.1.1.704.704-.101.101.703.704-.1.1.704.704-.1.1.703.704-.1.1.703.704-.1.1.703.704-.1.1.703.704-.1.1.703.704-.1.1.703.704-.1.1.704.705-.1.1.702.703-.1.1.704.705-.101.1.703.704-.1.1.704.704-.1.1.702.703-.1.1.704.705-.101.1.703.704-.1.1.704.704-.1.1.702.704-.1.1.704.704-.101.101.703.703-.1.1.704.704-.1.1.702.704-.1.1.704.705-.1.1.702.703-.1.1.704.704-.1.1.703.705-10.332 10.332.08.08-.1.1.703.704-.1.1.704.704-.101.1.703.704-.1.1.704.704-.101.1.703.704-.1.1.704.704-.101.1.703.704-.1.1.704.704-.101.101.703.704-.1.1.704.703-.101.101.703.703-.1.1.704.705-.101.1.703.704-.1.1.704.704-.1.1.702.704-.1.1.704.704-.1.1.703.704-10.32 10.319-12.04-12.04-12.04 12.04-10.32-10.32.1-.1-.703-.703.1-.1-.704-.704.101-.101-.703-.703.1-.1L41.16 83l.101-.1-.703-.704.1-.1-.704-.705.101-.1-.703-.704.1-.1-.704-.703.101-.101-.703-.704.1-.1-.704-.704.101-.1-.703-.704.1-.1-.704-.704.101-.1-.703-.704.1-.1-.704-.704.101-.101-.703-.703.1-.1-.704-.704.1-.1-.703-.704.1-.1-.703-.704.1-.1-.703-.704.1-.1-.703-.704.1-.101-.703-.704.1-.1-.703-.703.1-.101-.703-.704.1-.1-.703-.704.1-.1-.704-.704.1-.1-.702-.704.1-.1-.704-.704.101-.1-.703-.704.1-.1-.704-.704.1-.1-.702-.704.1-.1-.704-.704.101-.1-.703-.704.1-.1-.704-.704.101-.1-.703-.704.1-.1-.704-.704.1-.101-.703-.704.1-.1-.703-.703.1-.101-.703-.704.1-.1-.703-.704.1-.1-.703-.704z" mask="url(#b)" opacity=".131"/>
        <path fill="#FFF" d="M53.248 18.846L41.207 30.887l-12.04-12.039-10.32 10.32 12.042 12.04L18.848 53.25l10.32 10.32 12.039-12.042 12.04 12.041 10.32-10.319-12.04-12.04 12.04-12.042z"/>
        <ellipse cx="41.5" cy="94.5" fill="url(#c)" fill-rule="nonzero" filter="url(#d)" opacity=".23" rx="38.5" ry="3.5" style="mix-blend-mode:multiply"/>
    </g>
</svg>
