<svg xmlns="http://www.w3.org/2000/svg" xmlns:xlink="http://www.w3.org/1999/xlink" width="85" height="102" viewBox="0 0 85 102">
    <defs>
        <radialGradient id="a" cx="49.94%" cy="50.018%" r="550.365%" fx="49.94%" fy="50.018%" gradientTransform="matrix(.0909 0 0 1 .454 0)">
            <stop offset="0%" stop-color="#747474"/>
            <stop offset="7%" stop-color="#8A8A8A"/>
            <stop offset="19%" stop-color="#AEAEAE"/>
            <stop offset="32%" stop-color="#CBCBCB"/>
            <stop offset="46%" stop-color="#E2E2E2"/>
            <stop offset="61%" stop-color="#F2F2F2"/>
            <stop offset="78%" stop-color="#FCFCFC"/>
            <stop offset="100%" stop-color="#FFF"/>
        </radialGradient>
        <filter id="b" width="115.6%" height="271.4%" x="-7.8%" y="-85.7%" filterUnits="objectBoundingBox">
            <feGaussianBlur in="SourceGraphic" stdDeviation="2"/>
        </filter>
        <path id="c" d="M70.35 12.07c-16.094-16.093-42.186-16.093-58.28 0-16.093 16.094-16.093 42.186 0 58.28 16.094 16.093 42.186 16.093 58.28 0a41.07 41.07 0 0 0 0-58.28z"/>
    </defs>
    <g fill="none" fill-rule="evenodd" transform="translate(1)">
        <ellipse cx="41.5" cy="94" fill="url(#a)" fill-rule="nonzero" filter="url(#b)" opacity=".23" rx="38.5" ry="3.5" style="mix-blend-mode:multiply"/>
        <mask id="d" fill="#fff">
            <use xlink:href="#c"/>
        </mask>
        <use fill="#00C800" fill-rule="nonzero" xlink:href="#c"/>
        <g fill="#000" fill-rule="nonzero" mask="url(#d)" opacity=".11">
            <path d="M58.64 79.34l-11.1-11.1-10.13 10.13L58.64 99.6l10.13-10.13 24.86-24.86L83.5 54.48z" opacity=".02"/>
            <path d="M58.04 78.54L46.93 67.43 36.8 77.56 58.04 98.8l10.13-10.13 24.86-24.86L82.9 53.68z" opacity=".05"/>
            <path d="M57.44 77.73l-11.11-11.1L36.2 76.76 57.44 98v-.01l10.12-10.13L92.43 63 82.3 52.87z" opacity=".07"/>
            <path d="M56.83 76.93l-11.1-11.1L35.6 75.95l21.23 21.24 10.13-10.13L91.82 62.2 81.69 52.07z" opacity=".1"/>
            <path d="M56.23 76.13L45.12 65.02 34.99 75.15l21.24 21.24v-.01l10.13-10.12L91.22 61.4 81.09 51.27z" opacity=".12"/>
            <path d="M55.63 75.32l-11.11-11.1-10.13 10.13 21.24 21.23 10.13-10.13 24.86-24.86-10.13-10.13z" opacity=".15"/>
            <path d="M55.02 74.52l-11.1-11.11-10.13 10.13 21.23 21.24 10.13-10.13 24.87-24.86-10.14-10.13z" opacity=".17"/>
            <path d="M54.42 73.71l-11.11-11.1-10.13 10.13 21.24 21.23 10.13-10.13 24.86-24.86-10.13-10.13z" opacity=".2"/>
            <path d="M53.82 72.91L42.71 61.8 32.58 71.94l21.24 21.23 10.13-10.13 24.86-24.86-10.13-10.13z" opacity=".22"/>
            <path d="M53.21 72.11L42.11 61 31.98 71.13l21.23 21.24.01-.01 10.12-10.12 24.87-24.86-10.13-10.14z" opacity=".24"/>
            <path d="M52.61 71.3l-11.1-11.1-10.13 10.13 21.23 21.23 10.13-10.13L87.6 56.57 77.47 46.44z" opacity=".27"/>
            <path d="M52.01 70.5L40.9 59.39 30.77 69.52l21.24 21.24 10.13-10.13L87 55.77 76.87 45.64z" opacity=".29"/>
            <path d="M51.41 69.69L40.3 58.59 30.17 68.72l21.24 21.23 10.12-10.13L86.4 54.96 76.27 44.83z" opacity=".32"/>
            <path d="M50.8 68.89L39.7 57.78 29.57 67.91 50.8 89.15l10.13-10.13 24.86-24.86-10.13-10.13z" opacity=".34"/>
            <path d="M50.2 68.09L39.09 56.98 28.96 67.11 50.2 88.35v-.01l10.13-10.12 24.86-24.87-10.13-10.13z" opacity=".37"/>
            <path d="M49.59 67.28l-11.1-11.1-10.13 10.13 21.23 21.23h.01l10.13-10.13 24.86-24.86-10.13-10.13z" opacity=".39"/>
            <path d="M48.99 66.48l-11.1-11.11L27.76 65.5l21.23 21.24 10.13-10.13 24.86-24.86-10.13-10.13z" opacity=".41"/>
            <path d="M48.39 65.67l-11.11-11.1L27.15 64.7l21.24 21.23L58.52 75.8l24.86-24.86-10.13-10.13z" opacity=".44"/>
            <path d="M47.79 64.87L36.68 53.76 26.55 63.89l21.24 21.24L57.92 75l24.86-24.86-10.13-10.13z" opacity=".46"/>
            <path d="M47.18 64.06l-11.1-11.1-10.13 10.13 21.23 21.24.01-.01 10.12-10.13 24.86-24.86L72.05 39.2z" opacity=".49"/>
            <path d="M46.58 63.26l-11.1-11.1-10.14 10.13 21.24 21.23 10.13-10.13 24.86-24.86L71.44 38.4z" opacity=".51"/>
            <path d="M45.98 62.46L34.87 51.35 24.74 61.48l21.24 21.24 10.13-10.13 24.86-24.86-10.13-10.14z" opacity=".54"/>
            <path d="M45.37 61.65l-11.1-11.1-10.13 10.13 21.23 21.23h.01L55.5 71.78l24.87-24.86-10.13-10.13z" opacity=".56"/>
            <path d="M44.77 60.85l-11.1-11.11-10.13 10.13 21.23 21.24L54.9 70.98l24.86-24.86-10.13-10.13z" opacity=".59"/>
            <path d="M44.17 60.05L33.06 48.94 22.93 59.07l21.24 21.24v-.01L54.3 70.17l24.86-24.86-10.13-10.13z" opacity=".61"/>
            <path d="M43.56 59.24l-11.1-11.11-10.13 10.14L43.56 79.5h.01L53.7 69.37l24.86-24.86-10.13-10.13z" opacity=".63"/>
            <path d="M42.96 58.44l-11.1-11.11-10.13 10.13L42.96 78.7v-.01l10.13-10.12L77.95 43.7 67.82 33.58z" opacity=".66"/>
            <path d="M42.36 57.63l-11.11-11.1-10.13 10.13 21.24 21.23 10.13-10.13L77.35 42.9 67.22 32.77z" opacity=".68"/>
            <path d="M41.76 56.83L30.65 45.72 20.52 55.85l21.24 21.24 10.13-10.13L76.75 42.1 66.62 31.97z" opacity=".71"/>
            <path d="M41.15 56.02l-11.1-11.1-10.13 10.13 21.23 21.23h.01l10.12-10.12 24.86-24.87-10.13-10.13z" opacity=".73"/>
            <path d="M40.55 55.22l-11.11-11.1-10.13 10.12 21.24 21.24 10.13-10.13 24.86-24.86-10.13-10.13z" opacity=".76"/>
            <path d="M39.95 54.42L28.84 43.31 18.71 53.44l21.24 21.24v-.01l10.13-10.12 24.86-24.86-10.13-10.14z" opacity=".78"/>
            <path d="M39.34 53.61l-11.1-11.1-10.13 10.13 21.23 21.23h.01l10.12-10.13 24.86-24.86L64.2 28.75z" opacity=".8"/>
            <path d="M38.74 52.81L27.64 41.7 17.5 51.83l21.24 21.24 10.13-10.13 24.86-24.86L63.6 27.95z" opacity=".83"/>
            <path d="M38.14 52L27.03 40.9 16.9 51.03l21.24 21.24v-.01l10.13-10.13 24.86-24.86L63 27.14z" opacity=".85"/>
            <path d="M37.53 51.2l-11.1-11.11L16.3 50.23l21.23 21.23h.01l10.12-10.13 24.87-24.86L62.4 26.34z" opacity=".88"/>
            <path d="M36.93 50.4l-11.1-11.11L15.7 49.42l21.23 21.24v-.01l10.13-10.12 24.86-24.87-10.13-10.13z" opacity=".9"/>
            <path d="M36.33 49.59l-11.11-11.1-10.13 10.13 21.24 21.23 10.13-10.13 24.86-24.86-10.13-10.13z" opacity=".93"/>
            <path d="M35.73 48.79L24.62 37.68 14.49 47.81l21.24 21.24 10.13-10.13 24.86-24.86-10.13-10.13z" opacity=".95"/>
            <path d="M35.12 47.98l-11.1-11.1-10.13 10.13 21.23 21.23h.01l10.12-10.13 24.86-24.86-10.13-10.13z" opacity=".98"/>
            <path d="M34.52 47.18L23.41 36.07 13.28 46.2l21.24 21.24 10.13-10.13 24.86-24.86-10.13-10.13z"/>
        </g>
        <path fill="#FFF" fill-rule="nonzero" d="M34.52 47.18L23.41 36.07 13.28 46.2l21.24 21.24 10.13-10.13 24.86-24.86-10.13-10.13z" mask="url(#d)"/>
    </g>
</svg>
