<svg xmlns="http://www.w3.org/2000/svg" width="66" height="66" viewBox="0 0 66 66">
    <g fill="#FFF" fill-rule="nonzero" stroke="#FFF">
        <path d="M64.654 34.853c0-.58-.385-.965-.964-.965h-7.909V24.63c5.112-1.35 8.97-6.076 8.97-11.67C64.654 6.401 59.253 1 52.599 1c-6.462 0-11.67 5.112-12.056 11.477H1.964c-.578 0-.964.386-.964.965v29.705c0 .579.386.964.964.964h7.234V63.69c0 .579.386.964.964.964H63.69c.579 0 .964-.385.964-.964V34.853zm-53.527 8.97a9.017 9.017 0 0 0 7.908-7.91h35.782a9.017 9.017 0 0 0 7.909 7.91v10.994a9.017 9.017 0 0 0-7.91 7.909h-35.78a9.017 9.017 0 0 0-7.91-7.91V43.823zm0-2.026v-5.98h5.883c-.29 3.183-2.797 5.594-5.883 5.98zm51.599 0c-3.087-.386-5.498-2.894-5.884-5.98h5.884v5.98zM52.599 2.929c5.594 0 10.127 4.533 10.127 10.127s-4.533 10.127-10.127 10.127-10.127-4.533-10.127-10.127S47.005 2.929 52.599 2.929zM2.929 42.182V14.406h37.71c.675 5.98 5.787 10.706 11.96 10.706.385 0 .771 0 1.157-.097v8.873H10.162c-.578 0-.964.386-.964.965v7.233h-6.27v.096zm8.198 14.564c3.086.386 5.497 2.893 5.883 5.98h-5.883v-5.98zm45.619 5.98c.386-3.087 2.893-5.594 5.98-5.98v5.98h-5.98z"/>
        <path d="M36.974 60.893c6.366 0 11.477-5.208 11.477-11.573 0-6.366-5.208-11.574-11.477-11.574S25.497 42.954 25.497 49.32c-.096 6.365 5.112 11.573 11.477 11.573zm0-21.218c5.305 0 9.549 4.34 9.549 9.645 0 5.304-4.34 9.644-9.549 9.644-5.208 0-9.548-4.34-9.548-9.644-.096-5.305 4.244-9.645 9.548-9.645z"/>
        <path d="M33.599 51.827l-1.254 1.447c1.254 1.06 2.604 1.736 4.244 1.832v1.254h1.06v-1.254c1.158-.096 2.122-.386 2.797-1.06.676-.676 1.061-1.447 1.061-2.412 0-.964-.289-1.736-.964-2.314-.579-.483-1.543-.965-2.893-1.254v-3.183c.868.096 1.736.482 2.41.964l1.158-1.543c-1.157-.771-2.315-1.157-3.568-1.253v-.869h-1.061v.869c-1.061.096-2.026.385-2.7 1.06-.676.676-1.062 1.447-1.062 2.412 0 .964.29 1.736.868 2.218.579.482 1.543.868 2.797 1.254v3.375c-.964-.29-1.929-.771-2.893-1.543zm4.05-1.543c.676.193 1.158.386 1.447.675.29.193.386.579.386.965 0 .385-.193.771-.482.964-.386.193-.772.386-1.35.482v-3.086zm-2.41-3.086c-.194-.193-.386-.483-.386-.868 0-.386.192-.675.482-.965.29-.29.675-.386 1.157-.482v2.99c-.579-.193-.964-.482-1.254-.675zM6.208 27.233h9.066c.579 0 .964-.385.964-.964v-8.68c0-.579-.385-.965-.964-.965H6.208c-.579 0-.964.386-.964.965v8.68c0 .579.385.964.964.964zm.965-8.68h7.137v6.751H7.173v-6.75zM11.223 30.705c0-.578-.385-.964-.964-.964h-4.05c-.58 0-.965.386-.965.964 0 .58.385.965.964.965h4.147c.483 0 .868-.482.868-.965zM13.249 30.705c0 .58.385.965.964.965h4.147c.579 0 .965-.386.965-.965 0-.578-.386-.964-.965-.964h-4.147a.966.966 0 0 0-.964.964zM26.462 29.74h-4.147c-.58 0-.965.387-.965.965 0 .58.386.965.965.965h4.147c.578 0 .964-.386.964-.965a.966.966 0 0 0-.964-.964zM34.467 29.74H30.32c-.58 0-.965.387-.965.965 0 .58.386.965.965.965h4.147c.578 0 .964-.386.964-.965 0-.578-.386-.964-.964-.964zM37.457 30.705c0 .58.385.965.964.965h4.147c.579 0 .965-.386.965-.965 0-.578-.386-.964-.965-.964h-4.147c-.579 0-.964.386-.964.964zM46.426 31.67h4.147c.579 0 .965-.386.965-.965 0-.578-.386-.964-.965-.964h-4.147c-.579 0-.964.386-.964.964 0 .483.482.965.964.965zM20.096 21.35h19.965c.578 0 .964-.386.964-.964 0-.579-.386-.965-.964-.965H20.096c-.578 0-.964.386-.964.965 0 .578.386.964.964.964zM20.096 26.076h19.965c.578 0 .964-.386.964-.964 0-.58-.386-.965-.964-.965H20.096c-.578 0-.964.386-.964.965 0 .482.386.964.964.964zM48.74 15.95l-1.446 1.735c1.447 1.254 3.086 2.026 4.822 2.122v1.447h1.254v-1.447c1.35-.096 2.411-.482 3.28-1.157.771-.772 1.253-1.64 1.253-2.797 0-1.158-.386-2.026-1.06-2.7-.676-.58-1.833-1.062-3.376-1.447h-.097V7.944c1.061.193 1.93.579 2.797 1.157l1.254-1.832a8.266 8.266 0 0 0-4.147-1.447v-1.06H52.02v.964c-1.254.096-2.315.482-3.086 1.157-.675.868-1.061 1.736-1.061 2.894 0 1.157.386 2.025 1.06 2.604.676.578 1.737 1.06 3.28 1.446v3.858c-1.254-.193-2.315-.771-3.472-1.736zm4.727-1.833c.771.193 1.35.482 1.64.771.289.29.482.675.482 1.061 0 .482-.193.868-.58 1.158-.385.289-.867.482-1.542.578v-3.568zm-2.797-3.472c-.29-.29-.386-.58-.386-1.061 0-.483.193-.772.482-1.158.29-.289.772-.482 1.35-.482v3.472a9.02 9.02 0 0 1-1.446-.771z"/>
    </g>
</svg>
