<svg xmlns="http://www.w3.org/2000/svg" width="60" height="60" viewBox="0 0 60 60">
    <g fill="#FFF" fill-rule="nonzero">
        <path d="M43.333 38.333H26.667c-.92 0-1.667.747-1.667 1.667v11.667c0 .92.746 1.666 1.667 1.666h16.666c.92 0 1.667-.746 1.667-1.666V40c0-.92-.746-1.667-1.667-1.667zM41.667 50H28.333v-8.333h13.334V50z"/>
        <path d="M35 48.333c-.92 0-1.667-.746-1.667-1.666V45a1.667 1.667 0 0 1 3.334 0v1.667c0 .92-.747 1.666-1.667 1.666zM35 30a6.667 6.667 0 0 0-6.667 6.667V40c0 .92.747 1.667 1.667 1.667h10c.92 0 1.667-.747 1.667-1.667v-3.333A6.667 6.667 0 0 0 35 30zm-3.333 8.333v-1.666a3.333 3.333 0 1 1 6.666 0v1.666h-6.666zM6.667 15h-5C.747 15 0 15.746 0 16.667v36.666A6.667 6.667 0 0 0 6.667 60c.92 0 1.666-.746 1.666-1.667V16.667c0-.92-.746-1.667-1.666-1.667zM3.333 53.333v-35H5v37.884a3.333 3.333 0 0 1-1.667-2.884z"/>
        <path d="M60 22.8l-1.667-5a1.667 1.667 0 0 0-1.666-1.133h-20a1.667 1.667 0 0 0-1.584 1.133L33.8 21.667H11.667c-.92 0-1.667.746-1.667 1.666v30a3.333 3.333 0 0 1-.983 2.35l-.234.217-.183.15-.267.167a3.333 3.333 0 0 1-1.666.45 1.667 1.667 0 1 0 0 3.333h51.666c.92 0 1.667-.746 1.667-1.667v-35a1.983 1.983 0 0 0 0-.533zm-3.333 33.867H12.433a5.4 5.4 0 0 0 .284-.534c.078-.148.14-.304.183-.466.066-.158.121-.32.167-.484a.45.45 0 0 0 0-.2 5.2 5.2 0 0 0 .15-.733 5.45 5.45 0 0 0 .116-.917V25H35a1.667 1.667 0 0 0 1.583-1.133L37.867 20h17.6l1.2 3.6v33.067z"/>
        <path d="M53.333 0H6.667C5.747 0 5 .746 5 1.667v56.666C5 59.253 5.746 60 6.667 60a6.667 6.667 0 0 0 5.766-3.333 5.4 5.4 0 0 0 .284-.534c.078-.148.14-.304.183-.466.066-.158.121-.32.167-.484a.45.45 0 0 0 0-.2 5.2 5.2 0 0 0 .15-.733 5.45 5.45 0 0 0 .116-.917V25H35a1.667 1.667 0 0 0 1.583-1.133L37.867 20h15.466c.92 0 1.667-.746 1.667-1.667V1.667C55 .747 54.254 0 53.333 0zM36.667 16.667a1.667 1.667 0 0 0-1.584 1.133L33.8 21.667H11.667c-.92 0-1.667.746-1.667 1.666v30a3.333 3.333 0 0 1-.983 2.35l-.234.217-.183.15-.267.167V3.333h43.334v13.334h-15z"/>
        <path d="M18.333 20a6.667 6.667 0 1 1 0-13.333 6.667 6.667 0 0 1 0 13.333zm0-10a3.333 3.333 0 1 0 0 6.667 3.333 3.333 0 0 0 0-6.667zM46.667 11.667h-15a1.667 1.667 0 0 1 0-3.334h15a1.667 1.667 0 0 1 0 3.334z"/>
    </g>
</svg>
