<svg xmlns="http://www.w3.org/2000/svg" width="113" height="55" viewBox="0 0 113 55">
    <g fill="none" fill-rule="evenodd">
        <path fill="#FFF" d="M32.606 9.872l1.696 17.012H30.91l1.696-17.012zm-2.407 23.815h4.814l.6 5.688h7.605L38.186.337h-10.45l-5.032 39.038h6.947l.548-5.688zm71.048-25.6c0-.947.438-1.393 1.367-1.393h1.095c.93 0 1.368.446 1.368 1.393v23.536c0 .95-.438 1.394-1.368 1.394h-1.095c-.93 0-1.367-.445-1.367-1.394V8.087zm-.548 31.623h4.923c4.76 0 7.112-2.397 7.112-7.25V7.25c0-4.85-2.351-7.25-7.112-7.25H100.7c-4.759 0-7.112 2.4-7.112 7.25v25.21c0 4.853 2.353 7.25 7.112 7.25zm-93.587 0h4.705c4.759 0 7.11-2.397 7.11-7.25v-7.281H11.38v6.444c0 .95-.438 1.394-1.368 1.394h-.986c-.93 0-1.366-.445-1.366-1.394V8.087c0-.947.437-1.393 1.366-1.393h.877c.93 0 1.367.446 1.367 1.393v5.465h7.55V7.25C18.818 2.399 16.465 0 11.705 0H7.112C2.352 0 0 2.4 0 7.25v25.21c0 4.853 2.351 7.25 7.112 7.25zm70.1 0h4.706c4.757 0 7.11-2.397 7.11-7.25v-7.281H81.48v6.444c0 .95-.439 1.394-1.368 1.394h-.985c-.93 0-1.367-.445-1.367-1.394V8.087c0-.947.436-1.393 1.367-1.393h.875c.93 0 1.369.446 1.369 1.393v5.465h7.548V7.25C88.92 2.399 86.568 0 81.807 0h-4.595C72.452 0 70.1 2.4 70.1 7.25v25.21c0 4.853 2.352 7.25 7.11 7.25zM55.07 7.028h1.642c.93 0 1.368.447 1.368 1.395v9.313c0 .948-.438 1.394-1.368 1.394H55.07V7.028zm0 18.795h3.555c4.761 0 7.112-2.397 7.112-7.25V7.585c0-4.853-2.351-7.249-7.112-7.249H47.412v39.038h7.658V25.823zM50.059 54.077h-1.022v-7.682h-1.342v-.909H51.4v.909h-1.341v7.682zm3.312-4.848h1.661v-3.743h1.022v8.59h-1.022V50.15h-1.66v3.927h-1.023v-8.59h1.022v3.742zm3.99-3.743h2.81v.909h-1.788v2.847h1.725v.896h-1.725v3.03h1.814v.909h-2.836v-8.59zm5.884 0h2.747v.909h-1.725v2.871h1.661v.896h-1.66v3.915h-1.023v-8.59zm7.529 0v7.07c0 1.063-.554 1.595-1.66 1.595h-.32c-1.107 0-1.661-.532-1.661-1.596v-7.069h1.022v7.118c0 .434.226.65.677.65h.243c.451 0 .677-.216.677-.65v-7.118h1.022zm3.3 8.59h-1.022v-7.681H71.71v-.909h3.705v.909h-1.341v7.682zm5.918-8.59v7.07c0 1.063-.553 1.595-1.66 1.595h-.32c-1.107 0-1.66-.532-1.66-1.596v-7.069h1.022v7.118c0 .434.225.65.677.65h.242c.452 0 .677-.216.677-.65v-7.118h1.022zm4.067 4.541c.536.14.805.524.805 1.154v2.896h-1.022v-2.86c0-.499-.26-.748-.78-.748h-.753v3.608h-1.022v-8.59h1.903c1.107 0 1.66.531 1.66 1.595v1.595c0 .696-.263 1.146-.791 1.35zm-.23-2.994c0-.434-.226-.65-.677-.65h-.843v3.215h.766c.503 0 .754-.242.754-.724v-1.841zm2.316-1.547h2.81v.909h-1.788v2.847h1.725v.896h-1.725v3.03h1.814v.909h-2.836v-8.59zm4.91 7.167v1.424h-.997v-1.424h.997z"/>
        <path fill="#C00D0D" d="M98.095 51.762v-6.276h.909v8.665h-1.197L96.3 47.38v6.77h-.91v-8.665h1.317zM103.34 52.569c0 1.054-.54 1.582-1.62 1.582h-.374c-1.08 0-1.62-.528-1.62-1.582v-5.5c0-1.055.54-1.583 1.62-1.583h.374c1.08 0 1.62.528 1.62 1.582v5.5zm-.997-5.55c0-.43-.22-.644-.66-.644h-.3c-.44 0-.66.215-.66.645v5.597c0 .43.22.645.66.645h.3c.44 0 .66-.215.66-.645V47.02zM106.039 54.15l-1.254-8.664h1.18l.9 7.34.958-7.34h1.18l.959 7.328.9-7.328h1.15l-1.254 8.665h-1.534l-.826-6.214-.825 6.214zM112.734 53.429v.722h-.722v-.722z"/>
    </g>
</svg>
