<svg xmlns="http://www.w3.org/2000/svg" width="71" height="56" viewBox="0 0 71 56">
    <path fill="#FFF" fill-rule="nonzero" d="M51.495.031l-6.59 6.559a7.257 7.257 0 0 0-1.21-.977l-.14-.077a7.753 7.753 0 0 0-4.124-1.21 7.97 7.97 0 0 0-2.9.558c-.366.15-.719.332-1.054.543l-.31.17-.155.11a7.753 7.753 0 0 0-9.815.867L18.607 0 0 18.607l6.543 6.59 2.14 2.248a1.55 1.55 0 0 0 2.187 0 1.55 1.55 0 0 0 0-2.186l7.132-7.133 2.745-2.744 5.473-5.474 1.101-1.1a4.652 4.652 0 0 1 5.241-.854l-7.427 7.428a4.652 4.652 0 0 0 0 6.574l1.085 1.101a4.652 4.652 0 0 0 6.59 0l7.676-7.675 16.126 16.126c1.55 1.55 1.798 3.225 1.41 3.613l-1.1 1.1a1.38 1.38 0 0 1-1.148 0 5.49 5.49 0 0 1-2.45-1.55l-5.38-5.287a1.557 1.557 0 1 0-2.202 2.201l5.427 5.427c1.55 1.551 1.799 3.226 1.411 3.598l-1.085 1.1a1.411 1.411 0 0 1-1.148 0 5.551 5.551 0 0 1-2.465-1.55l-5.427-5.427a1.55 1.55 0 1 0-2.186 2.202l5.411 5.411c1.55 1.551 1.814 3.226 1.427 3.613l-1.101 1.101c-.388.372-2.047.14-3.613-1.426l-5.427-5.412a1.55 1.55 0 0 0-2.186 0c-.09.096-.164.206-.217.326l-.342-.109a4.652 4.652 0 0 0-1.147-4.388l-1.101-1.085a4.652 4.652 0 0 0-1.938-1.148 4.652 4.652 0 0 0-1.194-4.59l-1.101-1.085a4.652 4.652 0 0 0-6.047-.434 4.745 4.745 0 0 0-.93-1.365l-1.07-1.147a4.652 4.652 0 0 0-6.575 0l-2.202 2.186a4.652 4.652 0 0 0 0 6.575l1.101 1.1a4.652 4.652 0 0 0 3.101 1.334 4.543 4.543 0 0 0 1.334 3.101l1.1 1.086a4.652 4.652 0 0 0 3.102 1.349 4.652 4.652 0 0 0 1.333 3.1l1.101 1.102a4.543 4.543 0 0 0 3.101 1.333 4.543 4.543 0 0 0 1.334 3.102l1.1 1.1a4.652 4.652 0 0 0 3.288 1.35 4.435 4.435 0 0 0 1.985-.466l.977.977a7.753 7.753 0 0 0 5.256 2.481 3.783 3.783 0 0 0 2.667-1.147l1.101-1.101a3.97 3.97 0 0 0 .992-3.412c.21.04.423.067.636.078a3.845 3.845 0 0 0 2.76-1.054l1.086-1.101a3.907 3.907 0 0 0 .992-3.396c.21.04.422.066.636.077a3.799 3.799 0 0 0 2.651-1.054l1.101-1.1a3.97 3.97 0 0 0 .992-3.412c.21.04.423.066.636.077a3.814 3.814 0 0 0 2.76-1.054l1.086-1.101c1.845-1.845 1.225-5.35-1.411-7.985l-.776-.776-15.242-15.35a1.55 1.55 0 1 0-2.186-2.202l-9.877 9.877a1.55 1.55 0 0 1-2.187 0l-1.1-1.101a1.55 1.55 0 0 1 0-2.186l8.776-8.777a4.745 4.745 0 0 1 6.574 0l1.101 1.101 5.474 5.474 2.729 2.744 7.132 7.133-1.1 1.085a1.551 1.551 0 0 0 2.186 2.202l1.1-1.1 2.125-2.249 6.59-6.59L51.495.031zM4.342 18.638l14.25-14.25 4.388 4.388-7.118 7.117-2.744 2.745-4.435 4.42-4.341-4.42zm8.776 13.164a1.55 1.55 0 0 1 0-2.201l2.186-2.187a1.55 1.55 0 0 1 2.202 0l1.085 1.101a1.55 1.55 0 0 1 0 2.187l-2.155 2.248a1.55 1.55 0 0 1-2.186 0l-1.132-1.148zm5.473 5.474a1.55 1.55 0 0 1 0-2.186l2.202-2.14 2.59-2.59a1.55 1.55 0 0 1 2.202 0l1.085 1.101a1.55 1.55 0 0 1 0 2.187l-1.271 1.287-3.52 3.504a1.55 1.55 0 0 1-2.187 0l-1.1-1.163zm5.49 5.49a1.55 1.55 0 0 1 0-2.203l3.504-3.504a1.55 1.55 0 0 1 1.1-.45 1.55 1.55 0 0 1 1.102.45l1.085 1.1a1.55 1.55 0 0 1 0 2.187l-1.318 1.318-2.186 2.202a1.55 1.55 0 0 1-2.187 0l-1.1-1.1zm6.574 6.574l-1.1-1.101a1.55 1.55 0 0 1 0-2.187l2.2-2.186a1.55 1.55 0 0 1 2.187 0l1.101 1.085a1.55 1.55 0 0 1 0 2.202l-2.186 2.187a1.55 1.55 0 0 1-2.202.03v-.03zm9.552-1.411c1.55 1.55 1.798 3.225 1.41 3.612l-1.085 1.086c-.363.17-.784.17-1.147 0a5.412 5.412 0 0 1-2.466-1.55l-.775-.776L37.23 49.2a4.652 4.652 0 0 0 1.349-3.101l1.55 1.55.078.28zm21.196-24.872l-4.388-4.388-2.791-2.776-7.117-7.117 4.388-4.388 14.25 14.25-4.342 4.42z"/>
</svg>
