<svg xmlns="http://www.w3.org/2000/svg" width="60" height="60" viewBox="0 0 60 60">
    <path fill="#FFF" fill-rule="nonzero" d="M15 45v-5h20v5H15zm0-12.5v-5h30v5H15zM15 20v-5h30v5H15zm-5 40h2.45C15 60 15 60 15 57.5s0-2.5-2.55-2.5H10c-3.15 0-5-1.85-5-5v-2.45C5 45 5 45 2.5 45S0 45 0 47.55V50c0 6.65 3.35 10 10 10zm36.9 0H50c6.65 0 10-3.35 10-10v-2.45C60 45 60 45 57.5 45S55 45 55 47.55V50c0 3.15-1.85 5-5 5h-2.45C45 55 45 55 45 57.5s0 2.5 1.9 2.5zM2.5 15C5 15 5 15 5 12.45V10c0-3.15 1.85-5 5-5h2.45C15 5 15 5 15 2.5S15 0 12.45 0H10C3.35 0 0 3.35 0 10v2.45C0 15 0 15 2.5 15zm55 0c2.5 0 2.5 0 2.5-2.55V10c0-6.65-3.35-10-10-10h-2.45C45 0 45 0 45 2.5S45 5 47.55 5H50c3.15 0 5 1.85 5 5v2.45C55 15 55 15 57.5 15z"/>
</svg>
